PathFileType	4	(X/Y/Z)	C:/Users/opensim2020/Desktop/walking_exp_matlab/subject01_walking09_straight_04.trc																																																																																																																															
DataRate	CameraRate	NumFrames	NumMarkers	Units	OrigDataRate	OrigDataStartFrame	OrigNumFrames																																																																																																																											
100	100	8	43	mm	100	3887	292																																																																																																																											
Frame#	Time	LFHD			RFHD			LBHD			RBHD			C7			T10			CLAV			STRN			RBAK			LSHO			LUPA			LELB			LFRM			LWRA			LWRB			LFIN			RSHO			RUPA			RELB			RFRM			RWRA			RWRB			RFIN			LASI			RASI			LPSI			RPSI			LTHI			LKNE			LTIB			LANK			LHEE			LTOE			RTHI			RKNE			RTIB			RANK			RHEE			RTOE			*39			*40			*41			*42		
		X1	Y1	Z1	X2	Y2	Z2	X3	Y3	Z3	X4	Y4	Z4	X5	Y5	Z5	X6	Y6	Z6	X7	Y7	Z7	X8	Y8	Z8	X9	Y9	Z9	X10	Y10	Z10	X11	Y11	Z11	X12	Y12	Z12	X13	Y13	Z13	X14	Y14	Z14	X15	Y15	Z15	X16	Y16	Z16	X17	Y17	Z17	X18	Y18	Z18	X19	Y19	Z19	X20	Y20	Z20	X21	Y21	Z21	X22	Y22	Z22	X23	Y23	Z23	X24	Y24	Z24	X25	Y25	Z25	X26	Y26	Z26	X27	Y27	Z27	X28	Y28	Z28	X29	Y29	Z29	X30	Y30	Z30	X31	Y31	Z31	X32	Y32	Z32	X33	Y33	Z33	X34	Y34	Z34	X35	Y35	Z35	X36	Y36	Z36	X37	Y37	Z37	X38	Y38	Z38	X39	Y39	Z39	X40	Y40	Z40	X41	Y41	Z41	X42	Y42	Z42	X43	Y43	Z43
																																																																																																																																		
1	0	-1153.8031	1666.54675	-1482.97046	-1130.54932	1679.54309	-1372.89221	-1265.36902	1615.54822	-1460.77332	-1244.88464	1628.24548	-1343.99084	-1292.17371	1424.52209	-1400.00232	-1311.60339	1131.18079	-1379.71509	-1147.6521	1362.72803	-1416.99109	-1098.28503	1209.77905	-1420.00305	-1327.94519	1231.70557	-1309.15234	-1233.19788	1381.40332	-1569.12354	-1282.59949	1195.60461	-1639.42212	-1302.29041	1047.80383	-1634.80408	-1280.1676	936.98224	-1661.78699	-1217.08484	812.38519	-1645.87415	-1273.1394	814.80969	-1668.58911	-1233.02209	740.34766	-1681.65112	-1189.94922	1396.7572	-1259.09131	-1213.99854	1194.4447	-1146.39355	-1200.0603	1069.64758	-1141.16199	-1148.44885	959.28156	-1115.60474	-1053.02991	857.92188	-1149.38672	-1087.422	853.40833	-1102.6604	-1036.31812	785.01434	-1108.7002	-1139.03516	932.44049	-1496.32788	-1134.87842	924.62659	-1279.11157	-1325.49023	943.92969	-1443.30566	-1320.26086	945.90698	-1298.95496	-1110.36304	616.22772	-1567.71484	-1086.92981	485.37711	-1553.11304	-1105.85754	297.56055	-1573.63452	-1093.19568	75.69856	-1534.09167	-1131.14294	43.57207	-1479.03894	-944.65216	44.4584	-1544.62341	-1240.09045	598.53265	-1226.35876	-1269.04163	439.27448	-1248.03479	-1377.31335	300.46274	-1229.64111	-1482.3833	117.89179	-1264.69055	-1547.0498	97.0803	-1305.9884	-1362.81311	41.36787	-1287.29321	-1146.02197	1711.33813	-1395.57886	-1973.06262	1023.49963	3101.88867	-2012.42871	1022.06195	3140.75439	NaN	NaN	NaN
2	0.01	-1146.69604	1666.59192	-1486.80981	-1124.43005	1680.12305	-1376.71692	-1258.41968	1615.62488	-1465.42786	-1238.9364	1628.79053	-1348.57129	-1285.93005	1424.77625	-1403.64502	-1304.47266	1131.4917	-1382.29211	-1141.12305	1363.34863	-1420.01245	-1091.28601	1210.64929	-1422.73669	-1321.26013	1232.10193	-1312.20764	-1226.42468	1381.50684	-1572.40564	-1274.96094	1195.4126	-1642.56909	-1293.77527	1047.4552	-1637.91833	-1270.83069	936.69183	-1664.70789	-1207.02832	812.60846	-1648.62219	-1263.00647	814.70776	-1671.64685	-1222.41797	740.38757	-1684.45032	-1183.69177	1397.69519	-1262.32202	-1208.5968	1195.58154	-1149.56946	-1194.78259	1070.9436	-1143.89001	-1144.0614	960.45703	-1118.08325	-1049.21057	858.19189	-1151.06604	-1083.92822	854.04932	-1104.36475	-1033.87097	785.15259	-1110.0415	-1131.41724	933.1394	-1498.65735	-1127.26599	925.12946	-1281.85095	-1317.94983	944.69214	-1445.45557	-1312.68823	946.28296	-1300.99304	-1102.88757	616.76349	-1569.18079	-1080.61902	484.92621	-1554.47314	-1101.83008	297.06107	-1575.51599	-1092.24939	75.50803	-1534.19482	-1130.79297	43.82339	-1479.32886	-943.31366	43.23491	-1544.19067	-1231.05347	598.40594	-1228.65649	-1259.75732	439.15964	-1249.47119	-1371.07007	302.49283	-1230.92261	-1479.58582	121.75136	-1264.76062	-1544.32861	102.47717	-1306.41382	-1362.43774	41.48781	-1287.26221	-1139.8363	1711.64844	-1399.71655	-1972.99622	1023.71472	3101.9751	-2012.52893	1021.97192	3140.73877	NaN	NaN	NaN
3	0.02	-1139.48499	1666.66748	-1490.76526	-1118.17151	1680.71387	-1380.5498	-1251.31555	1615.79956	-1469.94373	-1232.77551	1629.54163	-1353.02515	-1279.52588	1425.2063	-1407.19897	-1297.4447	1131.91321	-1384.91956	-1134.56262	1364.04956	-1423.00281	-1084.31909	1211.52234	-1425.37793	-1314.61731	1232.75159	-1315.01367	-1219.65283	1381.7937	-1575.67993	-1267.24353	1195.30334	-1645.55286	-1285.15784	1047.33301	-1641.09302	-1261.42615	936.763	-1667.78357	-1196.79163	813.02533	-1651.4209	-1252.73767	814.74377	-1674.49634	-1211.61096	740.60181	-1687.26392	-1177.651	1398.79114	-1265.43835	-1203.46094	1196.92383	-1152.46533	-1189.57007	1072.33484	-1146.77661	-1139.62976	961.59338	-1120.43018	-1045.42798	858.54022	-1152.81262	-1080.16309	854.63446	-1106.427	-1030.83484	785.46741	-1111.54382	-1124.03125	933.91193	-1501.16541	-1120.15454	925.56989	-1284.41577	-1310.56396	945.51459	-1447.54773	-1305.14453	946.74884	-1303.07214	-1095.37097	617.04547	-1570.51282	-1075.05078	484.51141	-1555.96973	-1098.57397	296.6153	-1576.69543	-1091.5271	75.42965	-1534.33838	-1130.57129	43.92798	-1479.55554	-942.375	42.19178	-1543.68176	-1221.57764	598.46844	-1230.77856	-1249.33875	438.63629	-1250.84131	-1364.11194	304.60803	-1231.81934	-1476.20142	126.06033	-1265.11743	-1540.96826	108.5836	-1307.13953	-1361.98279	41.65033	-1287.15869	-1133.37976	1712.14563	-1403.83191	-1972.91174	1023.91492	3102.1189	-2012.44604	1021.93243	3140.67236	NaN	NaN	NaN
4	0.03	-1132.11523	1666.76001	-1494.65881	-1111.59583	1681.30017	-1384.31213	-1244.15564	1616.15637	-1474.46863	-1226.49121	1630.396	-1357.43237	-1273.01868	1425.7345	-1410.62976	-1290.57593	1132.42566	-1387.49756	-1127.93408	1364.88708	-1426.10999	-1077.42493	1212.3783	-1427.92029	-1307.87695	1233.53955	-1317.61707	-1212.80737	1382.06482	-1578.7616	-1259.51416	1195.38928	-1648.62964	-1276.45532	1047.31836	-1644.24109	-1251.84644	936.89081	-1670.77588	-1186.43201	813.57526	-1654.03259	-1242.29333	814.95117	-1677.29541	-1200.66162	741.09735	-1690.08997	-1171.43274	1399.81396	-1268.65271	-1198.2948	1198.39172	-1155.20642	-1184.40002	1073.80322	-1149.71252	-1135.36719	962.75433	-1122.75281	-1041.79468	858.95819	-1154.48413	-1077.14929	855.45001	-1107.94128	-1027.93762	785.78992	-1113.01819	-1116.78418	934.81873	-1503.89587	-1112.86353	926.27356	-1287.25085	-1303.30847	946.30597	-1449.7157	-1297.71582	947.35748	-1305.18335	-1088.32861	617.17163	-1571.94275	-1069.91711	484.12317	-1557.37598	-1095.40076	296.3934	-1577.49268	-1090.92871	75.37745	-1534.20874	-1130.28711	43.75277	-1479.53882	-941.67725	41.51525	-1543.56165	-1211.58032	598.15808	-1232.57776	-1238.21619	438.44073	-1252.0813	-1356.8385	307.39236	-1233.16101	-1472.36597	130.85999	-1265.48401	-1536.96008	115.39749	-1308.18481	-1361.45654	41.70507	-1287.16528	-1126.59155	1712.68323	-1407.91162	-1973.07922	1023.34351	3102.05957	-2012.56763	1022.13739	3140.75049	NaN	NaN	NaN
5	0.04	-1124.66797	1666.84912	-1498.49719	-1104.95313	1681.81238	-1388.00305	-1236.9436	1616.5979	-1478.86707	-1220.14502	1631.38586	-1361.75024	-1266.52246	1426.40088	-1414.10889	-1283.80298	1133.04919	-1390.11304	-1121.4187	1365.63477	-1428.92175	-1070.62	1213.25256	-1430.46362	-1301.29553	1234.48596	-1320.20911	-1205.98169	1382.55347	-1581.91333	-1251.68811	1195.47375	-1651.57251	-1267.73438	1047.39014	-1647.35669	-1242.1604	937.17664	-1673.74341	-1175.89038	814.35303	-1656.81323	-1231.71301	815.35394	-1680.33667	-1189.45923	741.67627	-1692.90747	-1165.34167	1401.0481	-1271.72705	-1192.91321	1199.91992	-1157.98279	-1179.41479	1075.27454	-1152.63867	-1131.08044	963.98242	-1125.10754	-1038.35144	859.48138	-1156.26062	-1074.09082	856.34656	-1109.6217	-1024.98877	786.2135	-1114.59314	-1109.74792	935.63275	-1506.51062	-1106.30444	926.94464	-1290.10474	-1296.16846	947.01288	-1451.99744	-1290.45325	947.98462	-1307.39136	-1082.49805	616.88153	-1573.30957	-1065.27869	484.0065	-1558.8103	-1092.40942	296.20306	-1578.04175	-1090.55981	75.4922	-1534.18982	-1130.21082	43.79569	-1479.55566	-941.16644	40.96967	-1543.56274	-1201.12244	598.14056	-1234.80493	-1226.23047	438.23535	-1253.25305	-1348.76489	310.54785	-1234.59912	-1468.22021	136.30833	-1265.87122	-1531.91199	122.86188	-1309.48083	-1360.7948	41.63494	-1287.10474	-1119.61902	1713.17944	-1411.94653	-1973.01917	1023.22095	3102.01685	-2012.56677	1021.98877	3140.67993	NaN	NaN	NaN
6	0.05	-1117.17407	1666.9762	-1502.25769	-1098.18958	1682.3269	-1391.6853	-1229.68701	1617.08691	-1483.10437	-1213.48755	1632.35034	-1365.84216	-1260.03589	1427.09143	-1417.49475	-1277.10925	1133.70361	-1392.74719	-1114.83215	1366.38904	-1431.86218	-1063.98584	1214.04797	-1432.91504	-1294.77905	1235.44446	-1322.81384	-1199.14417	1382.99255	-1584.88806	-1243.90149	1195.76367	-1654.70496	-1258.979	1047.56934	-1650.47815	-1232.42432	937.55176	-1676.77637	-1165.26221	815.23901	-1659.52063	-1221.02185	815.76031	-1683.04883	-1178.1731	742.4798	-1695.72351	-1159.19043	1402.18738	-1274.98669	-1187.5437	1201.53198	-1160.48889	-1174.55835	1076.6825	-1155.5614	-1127.03394	965.19824	-1127.49915	-1034.64673	859.94934	-1157.90271	-1070.526	857.16638	-1111.62585	-1021.84558	786.69757	-1116.02722	-1102.84668	936.57355	-1509.40881	-1099.57153	927.79535	-1293.0321	-1289.24377	947.61707	-1454.34607	-1283.42969	948.67712	-1309.6947	-1077.5033	616.94324	-1575.06323	-1060.87878	483.85498	-1560.22388	-1089.52698	296.03207	-1578.66638	-1090.22803	75.39117	-1534.07166	-1130.31848	44.05068	-1479.66431	-940.82129	40.50795	-1543.43164	-1190.49402	598.21637	-1236.76514	-1213.46204	438.20862	-1254.20276	-1339.40759	313.63782	-1236.19189	-1462.47119	141.88387	-1266.93579	-1526.01355	130.70575	-1311.24426	-1359.89111	41.50937	-1287.34521	-1112.51172	1713.68274	-1415.88855	-1973.02283	1023.92053	3101.94946	-2012.53162	1022.09723	3140.73242	NaN	NaN	NaN
7	0.06	-1109.65796	1667.09045	-1505.85535	-1091.05408	1682.86548	-1395.32581	-1222.42212	1617.67285	-1487.13806	-1206.85376	1633.36084	-1369.85327	-1253.56543	1427.72864	-1420.74976	-1270.60547	1134.39832	-1395.44434	-1108.34119	1367.14172	-1434.63147	-1057.40588	1214.8103	-1435.323	-1288.28784	1236.35535	-1325.49207	-1192.2428	1383.48975	-1587.8269	-1235.95081	1196.00293	-1657.73315	-1250.21069	1047.74243	-1653.52747	-1222.56311	937.88947	-1679.69312	-1154.46582	816.19031	-1662.12708	-1209.98828	816.14429	-1685.71338	-1166.77673	743.47369	-1698.67725	-1152.90186	1403.15063	-1277.93677	-1182.09668	1203.13074	-1162.8551	-1169.77991	1078.05969	-1158.16675	-1123.00476	966.33942	-1129.76453	-1031.32751	860.40253	-1159.7594	-1067.45581	858.04083	-1113.28638	-1019.49506	786.8584	-1117.93506	-1096.09583	937.29657	-1512.20349	-1093.72522	928.62616	-1295.95618	-1282.46436	948.17065	-1456.78809	-1276.64929	949.29639	-1312.10205	-1073.16516	616.58441	-1576.81409	-1056.75232	483.47369	-1561.51624	-1087.18372	295.87842	-1579.35278	-1090.05261	75.52992	-1534.12561	-1130.31421	44.09489	-1479.65918	-940.56818	40.26645	-1543.34656	-1178.65527	597.90002	-1238.7467	-1199.8689	437.73517	-1255.02869	-1329.4248	316.72418	-1237.39783	-1456.24548	147.76797	-1268.25684	-1519.15027	138.95349	-1313.49768	-1358.69495	41.75557	-1288.11218	-1105.32751	1714.05383	-1419.68274	-1973.02539	1023.69287	3102.0498	-2012.52515	1021.9538	3140.68335	NaN	NaN	NaN
8	0.07	-1102.1283	1667.19702	-1509.3302	-1084.00549	1683.3208	-1398.76978	-1215.15295	1618.27527	-1490.93774	-1200.10278	1634.34277	-1373.69067	-1247.09888	1428.36792	-1423.86816	-1264.16772	1135.05566	-1398.20447	-1101.77319	1367.9137	-1437.46667	-1050.83459	1215.5271	-1437.72156	-1281.88647	1237.20337	-1328.15271	-1185.38757	1383.93604	-1590.64001	-1228.01599	1196.3634	-1660.9032	-1241.41809	1047.98926	-1656.6803	-1212.65479	938.42084	-1682.76196	-1143.53784	817.17438	-1664.65845	-1198.95142	816.76868	-1688.74695	-1154.98108	744.36749	-1701.2688	-1146.6958	1404.18396	-1280.95691	-1176.51416	1204.65466	-1165.13684	-1165.16675	1079.39697	-1160.45691	-1118.98877	967.39429	-1131.85974	-1027.59436	860.83948	-1161.36511	-1063.87207	858.59967	-1115.48584	-1016.6413	787.12427	-1119.73267	-1089.55859	938.06635	-1515.03589	-1086.09558	930.15253	-1298.59558	-1275.88879	948.65979	-1459.36987	-1270.099	949.94098	-1314.62537	-1069.16296	616.25116	-1578.77527	-1053.03674	483.08813	-1562.9635	-1085.12024	295.51215	-1579.92078	-1089.70642	75.35315	-1533.96533	-1130.29419	44.1269	-1479.62891	-940.5578	39.91352	-1543.53577	-1166.91541	597.86041	-1240.66992	-1185.92468	437.49585	-1255.97681	-1318.50269	319.71945	-1238.91394	-1448.95447	153.65102	-1269.66479	-1511.13928	147.42801	-1315.90186	-1357.90601	42.12077	-1288.59631	-1098.07373	1714.5116	-1423.41748	-1973.05493	1023.39685	3101.854	-2012.52527	1022.06415	3140.67163	NaN	NaN	NaN
